<svg id="Layer_1" data-name="Layer 1" xmlns="http://www.w3.org/2000/svg" viewBox="0 0 32 26.76"><defs><style>.cls-1{fill-rule:evenodd;}</style></defs><path class="cls-1" d="M1999.2,2009.53a2.83,2.83,0,0,1,.17,1,2.88,2.88,0,1,1-4.57-2.32l0,0-6.54-19.51H1985a1,1,0,0,1-1-1h0a1,1,0,0,1,1-1h3.88a1,1,0,0,1,.71.29,1.08,1.08,0,0,1,.27.37l1.72,5.07,23.57,0c.89,0,.95.64.77,1.11l-.79,2.48c-.37,1.15-.75,2.24-1.12,3.34l-1.65,5c-.18.54-.27,1.16-.9,1.3a7,7,0,0,1-1,0h-14.42l.6,2.07H2009a2.88,2.88,0,1,1-2.71,1.9h-7.11Z" transform="translate(-1984 -1986.62)"/></svg>