<svg xmlns="http://www.w3.org/2000/svg" viewBox="0 0 90.7 107.1"><path d="M33.2 102.3C18.6 102.4 6.7 90.6 6.5 76l-.2-27c0-4.6 3.7-8.4 8.3-8.4l36.2-.3c4.6 0 8.4 3.7 8.4 8.3l.2 27c.2 14.7-11.6 26.6-26.2 26.7z" fill="#737174"/><linearGradient id="a" gradientUnits="userSpaceOnUse" x1="33.185" y1="110.231" x2="98.225" y2="24.919" gradientTransform="matrix(1 0 0 -1 0 117.56)"><stop offset="0" stop-color="#e9427f"/><stop offset=".184" stop-color="#e5437e"/><stop offset=".338" stop-color="#d9477a"/><stop offset=".481" stop-color="#c64b74"/><stop offset=".618" stop-color="#ac4e6c"/><stop offset=".75" stop-color="#8b4d60"/><stop offset=".877" stop-color="#664750"/><stop offset="1" stop-color="#3b3b3b"/></linearGradient><path d="M87.3 32.9c.1 15.7-12.8 28.5-28.4 28.6l-25.9.3-.3-48.2c0-4.6 3.7-8.4 8.3-8.4L58.9 5c15.5-.2 28.3 12.3 28.4 27.9z" fill="url(#a)"/><linearGradient id="b" gradientUnits="userSpaceOnUse" x1="46.227" y1="20.888" x2="46.227" y2="62.961" gradientTransform="matrix(1 0 0 -1 0 117.56)"><stop offset="0" stop-color="#e9427f" stop-opacity=".6"/><stop offset=".172" stop-color="#e5437e" stop-opacity=".673"/><stop offset=".316" stop-color="#d9477a" stop-opacity=".735"/><stop offset=".45" stop-color="#c64b74" stop-opacity=".792"/><stop offset=".578" stop-color="#ac4e6c" stop-opacity=".847"/><stop offset=".702" stop-color="#8b4d60" stop-opacity=".9"/><stop offset=".82" stop-color="#664750" stop-opacity=".951"/><stop offset=".936" stop-color="#3b3b3b"/></linearGradient><path d="M59.4 61.5l-26.5.2 20.4 31.2c3.9-4.6 6.3-10.7 6.2-17.2l-.1-14.2z" fill="url(#b)"/></svg>