<svg id="Isolation_Mode" data-name="Isolation Mode" xmlns="http://www.w3.org/2000/svg" viewBox="0 0 32 29.16"><defs><style>.cls-1{fill:#333;}</style></defs><path class="cls-1" d="M1989,1000.64v11a2.91,2.91,0,0,0,2.91,2.91h16.29a2.91,2.91,0,0,0,2.91-2.91v-11h4.44a1.74,1.74,0,0,0,.42-1.13,1.7,1.7,0,0,0-.6-1.31l-4.26-3.69-1.07-.92v-7.54a.63.63,0,0,0-.63-.63H2007a.63.63,0,0,0-.63.63v4.3l-5.16-4.46a1.7,1.7,0,0,0-1.07-.42h0a1.73,1.73,0,0,0-1.27.41l-9.8,8.48-4.43,3.84a1.7,1.7,0,0,0-.6,1.31,1.74,1.74,0,0,0,.42,1.13Z" transform="translate(-1984 -985.42)"/></svg>