<svg xmlns="http://www.w3.org/2000/svg" viewBox="-3 -3 30 27.375"><defs><style>.menu-home-icon{fill:#306fad;}</style></defs><path class="menu-home-icon" d="M2011.68,1000.48a1.25,1.25,0,0,0,.32-.85,1.29,1.29,0,0,0-.45-1l-3.2-2.77-.8-.69v-5.65a.47.47,0,0,0-.47-.48h-1.86a.47.47,0,0,0-.47.48v3.23l-3.87-3.35a1.25,1.25,0,0,0-.8-.32h0a1.36,1.36,0,0,0-1,.31l-7.35,6.36-3.32,2.88a1.29,1.29,0,0,0-.45,1,1.25,1.25,0,0,0,.32.85h3.45v8.28a2.19,2.19,0,0,0,2.19,2.18h12.21a2.18,2.18,0,0,0,2.18-2.18v-8.28Z" transform="translate(-1988 -989.06)"/></svg>